<svg xmlns="http://www.w3.org/2000/svg" xmlns:xlink="http://www.w3.org/1999/xlink" width="142" height="142" viewBox="0 0 142 142">
  <defs>
    <filter id="Ellipse_8" x="0" y="0" width="142" height="142" filterUnits="userSpaceOnUse">
      <feOffset dy="3" input="SourceAlpha"/>
      <feGaussianBlur stdDeviation="3" result="blur"/>
      <feFlood flood-opacity="0.322"/>
      <feComposite operator="in" in2="blur"/>
      <feComposite in="SourceGraphic"/>
    </filter>
  </defs>
  <g id="Group_5" data-name="Group 5" transform="translate(9.396 6)">
    <g transform="matrix(1, 0, 0, 1, -9.4, -6)" filter="url(#Ellipse_8)">
      <circle id="Ellipse_8-2" data-name="Ellipse 8" cx="62" cy="62" r="62" transform="translate(9 6)" fill="#fff" opacity="0.996"/>
    </g>
    <g id="Path_15" data-name="Path 15" transform="translate(27.239 30.068)" fill="none" stroke-linecap="round" stroke-linejoin="round">
      <path d="M28.185,58.643V39H41.277V58.643H57.643V32.458h9.819L34.731,3,2,32.458h9.819V58.643Z" stroke="none"/>
      <path d="M 57.64296722412109 58.6429557800293 L 57.64296722412109 32.45803451538086 L 67.46231079101562 32.45803451538086 L 34.73115539550781 3 L 1.99999988079071 32.45803451538086 L 11.81934452056885 32.45803451538086 L 11.81934452056885 58.6429557800293 L 28.18492126464844 58.6429557800293 L 28.18492126464844 39.00426864624023 L 41.27738952636719 39.00426864624023 L 41.27738952636719 58.6429557800293 L 57.64296722412109 58.6429557800293 M 57.64296722412109 61.6429557800293 L 41.27738952636719 61.6429557800293 C 39.62053298950195 61.6429557800293 38.27738952636719 60.29981231689453 38.27738952636719 58.6429557800293 L 38.27738952636719 42.00426864624023 L 31.18492126464844 42.00426864624023 L 31.18492126464844 58.6429557800293 C 31.18492126464844 60.29981231689453 29.84177780151367 61.6429557800293 28.18492126464844 61.6429557800293 L 11.81934452056885 61.6429557800293 C 10.16248893737793 61.6429557800293 8.819344520568848 60.29981231689453 8.819344520568848 58.6429557800293 L 8.819344520568848 35.45803451538086 L 1.99999988079071 35.45803451538086 C 0.7578442692756653 35.45803451538086 -0.3558446168899536 34.69252395629883 -0.8008668422698975 33.53282165527344 C -1.245877981185913 32.37312316894531 -0.9301779270172119 31.05911064147949 -0.006889048963785172 30.2281551361084 L 32.72426605224609 0.7701223492622375 C 33.29472351074219 0.2567056715488434 34.012939453125 -2.665540932866861e-06 34.73115539550781 -2.665540932866861e-06 C 35.44937133789062 -2.665540932866861e-06 36.16758728027344 0.2567056715488434 36.73804473876953 0.7701223492622375 L 69.46920013427734 30.2281551361084 C 70.39248657226562 31.05911064147949 70.70819091796875 32.37312316894531 70.26317596435547 33.53282165527344 C 69.81815338134766 34.69252395629883 68.7044677734375 35.45803451538086 67.46231079101562 35.45803451538086 L 60.64296722412109 35.45803451538086 L 60.64296722412109 58.6429557800293 C 60.64296722412109 60.29981231689453 59.29982376098633 61.6429557800293 57.64296722412109 61.6429557800293 Z" stroke="none" fill="#4da5a9"/>
    </g>
  </g>
</svg>
