<svg xmlns="http://www.w3.org/2000/svg" width="309.887" height="297.422" viewBox="0 0 309.887 297.422">
  <path id="Path_20" data-name="Path 20" d="M862.069,992.887q-38.051,0-76.1-.007c-1.979,0-3.966-.031-5.939-.183-11.051-.856-18.483-6.645-22.121-16.987-3.5-9.962-6.576-20.073-9.845-30.117Q728.382,885.146,708.685,824.7c-4.206-12.882-1-22.892,10.023-30.894q63.011-45.76,126-91.554c3.76-2.734,7.546-5.354,12.231-6.26a24.537,24.537,0,0,1,19.9,4.349q19.543,14.223,39.066,28.476,43.695,31.891,87.382,63.793c.96.7,1.921,1.4,2.874,2.112,9.521,7.107,12.849,17.449,9.178,28.775q-9.157,28.259-18.386,56.5c-10.262,31.51-20.665,62.975-30.707,94.555-3.375,10.612-12.874,18.405-24.112,18.238-4.885-.072-9.774.092-14.661.1Q894.767,992.9,862.069,992.887Z" transform="translate(-706.905 -695.467)" fill="#fce3d6"/>
</svg>
