<svg xmlns="http://www.w3.org/2000/svg" xmlns:xlink="http://www.w3.org/1999/xlink" width="142" height="142" viewBox="0 0 142 142">
  <defs>
    <filter id="Ellipse_7" x="0" y="0" width="142" height="142" filterUnits="userSpaceOnUse">
      <feOffset dy="3" input="SourceAlpha"/>
      <feGaussianBlur stdDeviation="3" result="blur"/>
      <feFlood flood-opacity="0.322"/>
      <feComposite operator="in" in2="blur"/>
      <feComposite in="SourceGraphic"/>
    </filter>
  </defs>
  <g id="Group_6" data-name="Group 6" transform="translate(9 6)">
    <g transform="matrix(1, 0, 0, 1, -9, -6)" filter="url(#Ellipse_7)">
      <circle id="Ellipse_7-2" data-name="Ellipse 7" cx="62" cy="62" r="62" transform="translate(9 6)" fill="#fff"/>
    </g>
    <path id="Path_17" data-name="Path 17" d="M55.37,7.546H41.688a9.78,9.78,0,0,0-18.46,0H9.546A6.565,6.565,0,0,0,3,14.092V59.916a6.565,6.565,0,0,0,6.546,6.546H55.37a6.565,6.565,0,0,0,6.546-6.546V14.092A6.565,6.565,0,0,0,55.37,7.546Zm-19.639,49.1H29.185V50.1h6.546Zm0-13.092H29.185V23.912h6.546ZM32.458,14.092a3.273,3.273,0,1,1,3.273-3.273A3.283,3.283,0,0,1,32.458,14.092Z" transform="translate(29.322 26.37)" fill="none" stroke="#ef7432" stroke-linecap="round" stroke-linejoin="round" stroke-width="3"/>
  </g>
</svg>
